<?xml version="1.0" standalone="no"?>
<!DOCTYPE svg PUBLIC "-//W3C//DTD SVG 20010904//EN"
 "http://www.w3.org/TR/2001/REC-SVG-20010904/DTD/svg10.dtd">
<svg version="1.0" xmlns="http://www.w3.org/2000/svg"
 width="110.000000pt" height="51.000000pt" viewBox="0 0 110.000000 51.000000"
 preserveAspectRatio="xMidYMid meet">
<metadata>
Created by potrace 1.15, written by Peter Selinger 2001-2017
</metadata>
<g transform="translate(0.000000,51.000000) scale(0.100000,-0.100000)"
fill="#000000" stroke="none">
<path d="M815 476 c-74 -24 -90 -43 -62 -74 9 -9 19 -29 22 -44 8 -31 0 -37
-56 -42 -19 -2 -45 -8 -59 -13 -14 -6 -34 -12 -45 -14 -11 -3 -21 -14 -23 -26
-3 -18 -21 -28 -110 -57 -112 -36 -154 -51 -212 -71 -66 -24 -166 -55 -178
-55 -7 0 -12 3 -12 8 1 8 119 62 137 62 18 0 146 42 157 51 9 8 -129 -24 -179
-42 -50 -18 -115 -52 -126 -66 -6 -7 -20 -13 -30 -13 -17 0 -26 -20 -14 -32 8
-8 185 21 219 36 119 54 303 116 346 116 21 0 42 4 45 10 3 6 19 10 35 10 16
0 46 11 66 25 63 43 83 31 75 -49 0 -10 4 -25 10 -32 6 -8 8 -21 5 -30 -6 -15
-18 -16 -91 -10 -77 6 -87 4 -106 -15 -33 -33 -22 -69 26 -87 49 -19 355 -22
395 -4 14 6 19 11 12 11 -10 1 -10 5 2 17 21 20 20 31 -3 43 -13 7 -24 6 -37
-4 -25 -19 -74 -19 -74 -1 0 8 10 17 23 19 21 4 21 4 -3 6 -23 2 -24 3 -5 11
15 6 6 9 -32 9 -28 1 -55 6 -58 11 -3 5 3 10 14 10 70 0 148 76 108 105 -9 7
-17 17 -17 24 0 6 -4 11 -8 11 -9 0 -30 76 -38 132 -12 90 -10 88 -119 54z"/>
</g>
</svg>
